# xmcd
#
# Track frame offsets:
# 150
# 21380
# 42610
# 62717
#
# Disc length: 1101 seconds
#
# Revision: 1
# Processed by: cddbd v1.5.2PL0 Copyright (c) Steve Scherf et al.
# Submitted via: Audion 3.0.2 (http://www.panic.com/audion/)
#
DISCID=35044b04
DTITLE=smap -  smap
DYEAR=1900
DGENRE=
TTITLE0=sekai ni hitotu dakeno hana
TTITLE1=sekai ni hitotu dakeno hana KARAOKE
TTITLE2=lion ha-to
TTITLE3=lion ha-to KARAOKE
EXTD=
EXTT0=
EXTT1=
EXTT2=
EXTT3=
PLAYORDER=
